<?xml version="1.0" encoding="utf-8"?>
<!-- Generator: Adobe Illustrator 26.0.1, SVG Export Plug-In . SVG Version: 6.00 Build 0)  -->
<svg version="1.1" id="Layer_1" xmlns="http://www.w3.org/2000/svg" xmlns:xlink="http://www.w3.org/1999/xlink" x="0px" y="0px"
	 viewBox="0 0 189.13 229.66" style="enable-background:new 0 0 189.13 229.66;" xml:space="preserve">
<style type="text/css">
	.st0{fill:#FFFFFF;}
</style>
<g>
	<polygon class="st0" points="84.53,23.83 84.53,20.13 94.57,14.03 104.6,20.13 104.6,28.51 87.87,28.51 87.87,31.04 104.6,31.04 
		104.6,34.56 84.53,34.56 84.53,24.99 101.26,24.99 101.26,21.89 94.57,17.82 	"/>
	<polygon class="st0" points="17.42,29.58 17.42,6.04 94.57,45.68 171.72,6.04 171.72,29.58 94.57,78.5 	"/>
	<g>
		<polygon class="st0" points="94.57,174.61 46.18,145.05 8.04,134.31 8.04,135.26 45.63,146.41 94.57,177.25 143.51,146.41 
			181.09,135.26 181.09,134.31 142.96,145.05 		"/>
		<polygon class="st0" points="181.09,121.52 142.63,128.45 94.57,158.07 46.51,128.45 8.04,121.52 8.04,122.35 46.06,129.7 
			94.57,160.43 143.07,129.7 181.09,122.35 		"/>
		<polygon class="st0" points="181.09,108.72 142.29,111.85 94.57,141.53 94.57,141.53 46.84,111.85 8.04,108.72 8.04,109.45 
			46.49,112.98 94.57,143.62 94.57,143.62 142.64,112.98 181.09,109.45 		"/>
		<polygon class="st0" points="165.75,52.98 152.67,49.04 152.11,49.39 167.18,53.85 		"/>
		<polygon class="st0" points="8.04,70.82 47.75,62.82 94.57,93.16 94.57,93.16 141.38,62.82 181.09,70.82 181.09,70.38 
			141.25,62.07 94.57,91.89 94.57,91.89 47.88,62.07 8.04,70.38 		"/>
		<polygon class="st0" points="94.57,7.44 122.41,24.34 129.05,20.93 94.57,0 60.09,20.93 66.72,24.34 		"/>
		<polygon class="st0" points="103.56,207.21 98.24,207.21 98.24,210.88 103.56,208.93 		"/>
		<polygon class="st0" points="21.95,53.85 37.02,49.39 36.47,49.04 23.38,52.98 		"/>
		<path class="st0" d="M94.57,191.15l-48.71-29.5L8.04,147.11v1.08l37.15,14.93l48.68,30.49l-11.3,6.86l-37.03-22.23l-37.5-18.33
			v1.23l36.7,18.7l35.35,22.01v0.13h0.01l-0.01,0.01v11.45l-73.96-44.9V61.13L31.37,45.8L25.38,42L0,57.42v114.83l94.57,57.42
			l94.57-57.42V57.42l-25.38-15.41l-5.99,3.8l25.25,15.33v107.39l-73.96,44.9v-11.45l-0.01-0.01h0.01v-0.13l35.35-22.01l36.7-18.7
			v-1.23l-37.49,18.33l-37.03,22.23l-11.3-6.86l48.68-30.49l37.15-14.93v-1.08l-37.81,14.53L94.57,191.15 M93.08,207.21h-7.3v1.68
			l7.3,2.06v9.32l-9.5-5.52v-2.26l7.31,4.13v-4.24l-7.31-2.15v-5.47h9.5V207.21z M105.54,205.21v1.81v1.56v2.26v3.92l-9.5,5.53
			v-2.82l7.52-4.22v-2.36l-7.52,3.06v-9.17h9.5V205.21z"/>
		<polygon class="st0" points="181.09,83.15 141.61,78.66 94.57,108.44 94.57,108.44 47.53,78.66 8.04,83.15 8.04,83.69 
			47.34,79.55 94.57,109.98 94.57,109.98 141.79,79.55 181.09,83.69 		"/>
		<polygon class="st0" points="181.09,95.94 141.95,95.25 94.57,124.98 94.57,124.98 47.18,95.25 8.04,95.94 8.04,96.56 
			46.92,96.27 94.57,126.8 94.57,126.8 142.21,96.27 181.09,96.56 		"/>
	</g>
</g>
</svg>
